<svg xmlns="http://www.w3.org/2000/svg" xmlns:xlink="http://www.w3.org/1999/xlink" width="522" zoomAndPan="magnify" viewBox="0 0 391.5 323.999988" height="432" preserveAspectRatio="xMidYMid meet" version="1.0"><defs><g/><clipPath id="db7caefb35"><path d="M 323 244 L 375 244 L 375 323.792969 L 323 323.792969 Z M 323 244 " clip-rule="nonzero"/></clipPath><clipPath id="fece1a1c08"><path d="M 52.644531 87 L 162 87 L 162 236 L 52.644531 236 Z M 52.644531 87 " clip-rule="nonzero"/></clipPath><clipPath id="20007f88c8"><path d="M 238 113 L 390.460938 113 L 390.460938 257 L 238 257 Z M 238 113 " clip-rule="nonzero"/></clipPath><clipPath id="965da3ec6b"><path d="M 248.800781 120.671875 L 381 120.671875 L 381 250.164062 L 248.800781 250.164062 Z M 248.800781 120.671875 " clip-rule="nonzero"/></clipPath><clipPath id="b746d6bb27"><path d="M 314.847656 120.671875 C 278.371094 120.671875 248.800781 149.660156 248.800781 185.417969 C 248.800781 221.175781 278.371094 250.164062 314.847656 250.164062 C 351.324219 250.164062 380.894531 221.175781 380.894531 185.417969 C 380.894531 149.660156 351.324219 120.671875 314.847656 120.671875 Z M 314.847656 120.671875 " clip-rule="nonzero"/></clipPath><clipPath id="b7b913414e"><path d="M 271 142 L 353 142 L 353 233 L 271 233 Z M 271 142 " clip-rule="nonzero"/></clipPath><clipPath id="4ed2f240d7"><path d="M 264.871094 151.789062 L 339.921875 130.910156 L 364.414062 218.949219 L 289.367188 239.828125 Z M 264.871094 151.789062 " clip-rule="nonzero"/></clipPath><clipPath id="18721e4e3a"><path d="M 264.871094 151.789062 L 339.921875 130.910156 L 364.414062 218.949219 L 289.367188 239.828125 Z M 264.871094 151.789062 " clip-rule="nonzero"/></clipPath></defs><path fill="#3be094" d="M 341.003906 270.140625 L 378.839844 270.140625 L 378.839844 289.054688 L 341.003906 289.054688 Z M 341.003906 270.140625 " fill-opacity="1" fill-rule="nonzero"/><path fill="#3be094" d="M 215.746094 37.816406 C 219.175781 38.578125 224.46875 41.042969 228.65625 44.804688 C 234.8125 50.328125 238.296875 57.984375 238.878906 65.589844 C 238.992188 67.074219 238.964844 68.683594 238.097656 69.894531 C 236.023438 72.792969 230.023438 69.195312 227.796875 67.925781 C 217.46875 62.039062 212.414062 50.816406 213.796875 39.90625 C 213.976562 38.480469 214.3125 37.496094 215.746094 37.816406 Z M 215.746094 37.816406 " fill-opacity="1" fill-rule="nonzero"/><path fill="#3be094" d="M 206.941406 68.167969 C 205.992188 71.535156 203.148438 76.121094 199.171875 79.175781 C 195.359375 82.105469 190.601562 83.777344 185.796875 83.875 C 184.710938 83.898438 183.542969 83.8125 182.695312 83.136719 C 180.671875 81.507812 183.53125 77.289062 184.546875 75.71875 C 189.246094 68.441406 197.617188 65.21875 205.5 66.664062 C 206.527344 66.851562 207.230469 67.136719 206.941406 68.167969 Z M 206.941406 68.167969 " fill-opacity="1" fill-rule="nonzero"/><path fill="#000000" d="M 124.558594 89.996094 C 127.910156 86.292969 125.773438 76.839844 121.335938 74.789062 C 117.027344 72.800781 111.910156 73.796875 108.171875 74.523438 C 90.363281 77.992188 71.554688 82.613281 53.824219 86.070312 C 52.703125 86.289062 52.753906 87.914062 53.882812 88.0625 C 77.5 91.230469 99.78125 91.355469 123.851562 90.328125 C 124.121094 90.316406 124.375 90.195312 124.558594 89.996094 Z M 124.558594 89.996094 " fill-opacity="1" fill-rule="nonzero"/><path fill="#000000" d="M 140.90625 147.339844 C 141.304688 147.339844 141.683594 147.105469 141.84375 146.710938 C 145.25 138.398438 160.929688 124.648438 173.539062 123.355469 C 184.289062 122.261719 195.253906 128.628906 199.617188 138.503906 C 199.945312 139.238281 200.933594 139.300781 201.371094 138.671875 C 204.144531 134.683594 207.546875 131.25 211.320312 128.414062 C 214.007812 138.449219 217.578125 148.84375 222.0625 159.699219 C 222.160156 159.941406 222.347656 160.113281 222.566406 160.214844 C 222.5625 160.230469 222.554688 160.246094 222.550781 160.265625 C 212.550781 158.761719 203.375 165.472656 201.515625 175.125 C 201.410156 175.671875 201.765625 176.203125 202.316406 176.308594 C 202.378906 176.320312 202.445312 176.324219 202.507812 176.324219 C 202.980469 176.324219 203.40625 175.992188 203.5 175.507812 C 205.242188 166.460938 214.140625 160.53125 223.167969 162.425781 C 223.734375 162.546875 224.296875 162.160156 224.375 161.578125 C 225.96875 150.09375 239.6875 144.722656 248.65625 152.085938 C 249.085938 152.441406 249.726562 152.375 250.078125 151.945312 C 250.433594 151.515625 250.371094 150.878906 249.941406 150.523438 C 241.347656 143.464844 227.777344 146.339844 223.382812 157.574219 C 219.082031 147.023438 215.652344 136.910156 213.078125 127.148438 C 222.351562 120.851562 233.628906 118.171875 243.882812 120.445312 C 258.753906 123.761719 261.175781 130.601562 264.035156 133.863281 C 264.402344 134.285156 265.042969 134.324219 265.460938 133.957031 C 265.878906 133.589844 265.921875 132.953125 265.554688 132.53125 C 262.910156 129.515625 259.945312 121.957031 244.324219 118.472656 C 233.75 116.128906 222.152344 118.761719 212.535156 125.074219 C 205.667969 97.871094 205.519531 73.382812 211.898438 49.738281 C 214.886719 38.660156 218.78125 29.871094 223.804688 22.875 C 229.941406 14.320312 238.105469 8.214844 246.785156 5.6875 C 256.5625 2.839844 267.054688 4.695312 274.164062 10.53125 C 280.375 15.628906 283.410156 23.039062 284.859375 28.355469 C 286.652344 34.9375 286.890625 37.433594 287.21875 44.09375 C 286.738281 44.226562 286.230469 44.410156 285.671875 44.703125 C 277.433594 48.976562 270.90625 60.707031 268.085938 70.433594 C 267.417969 72.746094 266.796875 75.484375 267.25 78.28125 C 268.417969 85.496094 275.804688 88.773438 283.9375 80.472656 C 284.796875 82.316406 285.808594 84.289062 287.105469 86.070312 C 293.941406 95.609375 305.074219 93.800781 306.84375 83.84375 C 307.226562 81.625 307.105469 79.402344 306.933594 77.230469 C 317.066406 82.199219 323.929688 75.84375 320.492188 65.5 C 318.128906 58.402344 313.003906 52.269531 306.425781 48.675781 C 303.3125 46.976562 296.664062 44.300781 291.035156 44.722656 C 290.59375 44.363281 289.996094 44.050781 289.234375 43.933594 C 288.90625 37.289062 288.644531 34.558594 286.808594 27.824219 C 284.617188 19.792969 280.6875 13.269531 275.445312 8.96875 C 267.828125 2.714844 256.628906 0.710938 246.21875 3.746094 C 237.109375 6.398438 228.5625 12.773438 222.160156 21.695312 C 216.996094 28.894531 213 37.894531 209.945312 49.210938 C 203.417969 73.421875 203.621094 98.476562 210.765625 126.316406 C 207.003906 129.039062 203.578125 132.324219 200.714844 136.132812 C 195.589844 126.371094 184.355469 120.234375 173.335938 121.347656 C 159.757812 122.738281 143.570312 137.167969 139.972656 145.945312 C 139.761719 146.464844 140.191406 147.339844 140.90625 147.339844 Z M 281.703125 79.859375 C 275.34375 85.859375 270.125 83.382812 269.246094 77.953125 C 268.855469 75.558594 269.421875 73.089844 270.03125 70.996094 C 272.726562 61.683594 278.898438 50.496094 286.601562 46.496094 C 287.65625 45.949219 288.90625 45.558594 289.808594 46.324219 C 293.015625 49.03125 291.375 62.332031 290.097656 66.316406 C 288.402344 71.589844 285.5 76.269531 281.703125 79.859375 Z M 301.792969 89.023438 C 298.558594 91.40625 292.945312 90.75 288.746094 84.886719 C 287.367188 82.992188 286.3125 80.820312 285.421875 78.851562 C 288.464844 75.285156 290.703125 71.121094 292.058594 66.800781 C 295.984375 70.429688 300.289062 73.578125 304.902344 76.144531 C 304.589844 77.105469 306.664062 85.40625 301.792969 89.023438 Z M 305.457031 50.449219 C 311.589844 53.800781 316.371094 59.519531 318.574219 66.136719 C 319.074219 67.640625 320.476562 72.75 317.601562 75.4375 C 316.324219 76.636719 314.285156 77.171875 312.160156 76.867188 C 310.039062 76.574219 307.992188 75.5625 306.269531 74.605469 C 301.316406 71.898438 296.722656 68.511719 292.589844 64.558594 C 293.5 60.03125 294.566406 51.207031 292.488281 46.691406 C 297.34375 46.746094 302.785156 48.988281 305.457031 50.449219 Z M 305.457031 50.449219 " fill-opacity="1" fill-rule="nonzero"/><path fill="#000000" d="M 365.359375 221.066406 C 365.722656 220.914062 365.972656 220.554688 365.972656 220.136719 C 365.972656 219.40625 365.101562 218.898438 364.460938 219.253906 C 351.628906 226.425781 338.667969 230.859375 321.53125 232.324219 C 304.179688 233.789062 286.871094 231.078125 269.445312 228.621094 C 268.898438 228.539062 268.382812 228.933594 268.308594 229.484375 C 268.230469 230.039062 268.617188 230.546875 269.167969 230.625 C 286.648438 233.089844 304.160156 235.832031 321.703125 234.339844 C 339.175781 232.84375 352.386719 228.300781 365.359375 221.066406 Z M 365.359375 221.066406 " fill-opacity="1" fill-rule="nonzero"/><path fill="#000000" d="M 152.21875 222.371094 C 151.664062 222.324219 151.179688 222.757812 151.144531 223.316406 C 151.109375 223.875 151.53125 224.355469 152.085938 224.390625 C 156.378906 224.667969 160.667969 224.933594 164.972656 225.183594 C 165.515625 225.21875 166.007812 224.800781 166.039062 224.234375 C 166.074219 223.675781 165.648438 223.195312 165.089844 223.164062 C 160.789062 222.914062 156.503906 222.648438 152.21875 222.371094 Z M 152.21875 222.371094 " fill-opacity="1" fill-rule="nonzero"/><path fill="#000000" d="M 379.390625 186.375 C 377.773438 184.882812 375.902344 183.71875 373.929688 182.972656 C 375.898438 175.621094 375.875 167.621094 373.851562 159.773438 C 373.710938 159.234375 373.160156 158.90625 372.621094 159.046875 C 372.082031 159.1875 371.753906 159.738281 371.894531 160.277344 C 373.910156 168.105469 373.855469 176.082031 371.730469 183.335938 C 371.574219 183.867188 371.875 184.425781 372.40625 184.585938 C 374.429688 185.207031 376.371094 186.339844 378.019531 187.859375 C 378.433594 188.242188 379.070312 188.210938 379.449219 187.804688 C 379.828125 187.394531 379.800781 186.753906 379.390625 186.375 Z M 379.390625 186.375 " fill-opacity="1" fill-rule="nonzero"/><g clip-path="url(#db7caefb35)"><path fill="#000000" d="M 341.878906 244.839844 C 341.660156 244.371094 341.117188 244.140625 340.625 244.316406 L 324.152344 250.160156 C 323.585938 250.359375 323.324219 251.003906 323.570312 251.535156 L 355.910156 321.285156 C 356.503906 322.632812 358.101562 323.363281 360.4375 323.363281 C 366.730469 323.363281 376.039062 318.007812 374.140625 313.765625 C 335.957031 232.1875 343.160156 247.582031 341.878906 244.839844 Z M 341.878906 244.839844 " fill-opacity="1" fill-rule="nonzero"/></g><path fill="#000000" d="M 296.328125 288.726562 C 271.5625 309.777344 236.441406 318.59375 204.664062 311.734375 C 194.496094 309.539062 183.691406 305.386719 177.25 297.277344 C 184.40625 296.960938 190.300781 295.058594 194.820312 291.597656 C 201.261719 286.667969 205.257812 276.550781 200.488281 268.796875 C 194.675781 259.347656 178.902344 260.730469 172.800781 269.886719 C 167.597656 277.695312 169.09375 287.839844 173.445312 295.277344 C 147.117188 294.460938 121.894531 276.234375 112.550781 251.019531 L 124.042969 258.605469 C 124.507812 258.914062 125.132812 258.785156 125.441406 258.320312 C 125.75 257.855469 125.621094 257.226562 125.15625 256.921875 L 110.871094 247.488281 C 110.226562 247.0625 109.351562 247.492188 109.304688 248.269531 C 109.0625 252.25 107.726562 256.078125 105.4375 259.34375 C 104.964844 260.019531 105.460938 260.933594 106.265625 260.933594 C 106.585938 260.933594 106.898438 260.785156 107.09375 260.503906 C 108.878906 257.957031 110.121094 255.09375 110.792969 252.085938 C 120.890625 278.84375 147.980469 297.183594 174.761719 297.324219 C 181.359375 306.660156 193.28125 311.34375 204.238281 313.710938 C 237.054688 320.792969 272.746094 311.421875 297.640625 290.269531 C 298.066406 289.90625 298.117188 289.269531 297.753906 288.84375 C 297.394531 288.417969 296.753906 288.367188 296.328125 288.726562 Z M 175.824219 295.296875 C 171.320312 288.378906 169.5 278.480469 174.480469 271.007812 C 179.78125 263.058594 193.746094 261.695312 198.765625 269.855469 C 202.8125 276.433594 199.359375 285.578125 193.59375 289.992188 C 189.132812 293.410156 183.167969 295.1875 175.824219 295.296875 Z M 175.824219 295.296875 " fill-opacity="1" fill-rule="nonzero"/><path fill="#000000" d="M 292.285156 190.585938 C 292.191406 189.746094 291.570312 189.195312 290.613281 189.304688 L 285.992188 189.835938 L 283.117188 164.839844 C 282.882812 162.824219 280.484375 162.960938 279.941406 164.226562 L 264.882812 192.429688 C 264.089844 193.789062 264.683594 195.175781 266.324219 194.988281 L 282.988281 193.070312 L 283.808594 200.222656 C 284.078125 202.542969 287.40625 202.136719 287.140625 199.835938 L 286.320312 192.6875 L 290.941406 192.15625 C 291.863281 192.050781 292.394531 191.527344 292.285156 190.585938 Z M 268.414062 191.859375 L 280.289062 169.632812 L 282.660156 190.21875 Z M 268.414062 191.859375 " fill-opacity="1" fill-rule="nonzero"/><path fill="#000000" d="M 307.035156 160.183594 C 296.890625 161.351562 295.039062 170.976562 296.207031 181.09375 C 297.371094 191.226562 301.398438 200.101562 311.492188 198.941406 C 321.574219 197.78125 323.492188 188.191406 322.324219 178.03125 C 321.160156 167.894531 317.132812 159.023438 307.035156 160.183594 Z M 311.152344 195.984375 C 303.050781 196.914062 300.574219 188.753906 299.640625 180.640625 C 298.695312 172.433594 299.203125 164.078125 307.375 163.140625 C 315.550781 162.199219 317.941406 170.230469 318.882812 178.425781 C 319.824219 186.609375 319.332031 195.042969 311.152344 195.984375 Z M 311.152344 195.984375 " fill-opacity="1" fill-rule="nonzero"/><path fill="#000000" d="M 330.828125 187.566406 L 347.492188 185.648438 L 348.316406 192.796875 C 348.578125 195.085938 351.914062 194.738281 351.648438 192.414062 L 350.824219 185.265625 L 355.449219 184.734375 C 357.214844 184.53125 357.015625 182.75 356.269531 182.160156 C 355.96875 181.921875 355.585938 181.828125 355.121094 181.882812 L 350.496094 182.414062 C 347.335938 156.371094 347.960938 156.871094 346.988281 156.183594 C 346.058594 155.535156 344.796875 155.984375 344.445312 156.804688 L 329.390625 185.007812 C 328.613281 186.335938 329.164062 187.753906 330.828125 187.566406 Z M 344.796875 162.210938 L 347.164062 182.796875 L 332.917969 184.4375 Z M 344.796875 162.210938 " fill-opacity="1" fill-rule="nonzero"/><path fill="#dbdfe6" d="M 261.996094 228.601562 C 244.261719 231.425781 226.527344 234.25 208.789062 237.074219 C 191.289062 235.121094 173.410156 233.082031 155.910156 231.128906 C 169.539062 220.390625 183.347656 211.058594 198.582031 202.753906 C 210.101562 196.472656 214.632812 197.257812 224.847656 204.417969 C 236.976562 212.917969 249.867188 220.101562 261.996094 228.601562 Z M 261.996094 228.601562 " fill-opacity="1" fill-rule="nonzero"/><g clip-path="url(#fece1a1c08)"><path fill="#dbdfe6" d="M 140.046875 87.960938 C 143.855469 90.734375 144.574219 95.886719 144.113281 100.820312 C 142.777344 114.996094 140.382812 129.054688 136.953125 142.8125 C 145.789062 150.292969 153.488281 159.292969 161.121094 168.179688 C 158.234375 189.085938 153.972656 209.910156 151.085938 230.8125 C 130.773438 237.082031 109.695312 237.589844 90.339844 228.441406 C 77.640625 182.492188 65.609375 132.957031 52.90625 87.007812 C 59.1875 87.480469 92.882812 93.578125 140.046875 87.960938 Z M 140.046875 87.960938 " fill-opacity="1" fill-rule="nonzero"/></g><g clip-path="url(#20007f88c8)"><path fill="#5dfdac" d="M 367.359375 134.757812 C 365.851562 133.464844 364.234375 132.277344 362.738281 130.941406 C 327.902344 99.484375 268.683594 111.800781 246.308594 156.925781 C 236.082031 177.558594 236.613281 201.6875 247.019531 220.550781 C 268.636719 259.71875 323.378906 267.910156 360.96875 239.445312 C 379.078125 225.722656 390.621094 204.328125 390.730469 183.464844 C 390.792969 164.722656 381.339844 146.804688 367.359375 134.757812 Z M 257.636719 215.046875 C 248.871094 199.136719 248.40625 178.785156 257.046875 161.398438 C 275.703125 123.695312 325.539062 112.746094 355.234375 139.46875 C 356.488281 140.605469 357.855469 141.609375 359.128906 142.695312 C 370.914062 152.847656 378.890625 167.96875 378.839844 183.765625 C 378.789062 193.007812 376.085938 202.359375 371.316406 210.847656 C 347.277344 253.753906 281.183594 258.027344 257.636719 215.046875 Z M 257.636719 215.046875 " fill-opacity="1" fill-rule="nonzero"/></g><g clip-path="url(#965da3ec6b)"><g clip-path="url(#b746d6bb27)"><path fill="#ffffff" d="M 248.800781 120.671875 L 380.820312 120.671875 L 380.820312 250.164062 L 248.800781 250.164062 Z M 248.800781 120.671875 " fill-opacity="1" fill-rule="nonzero"/></g></g><g clip-path="url(#b7b913414e)"><g clip-path="url(#4ed2f240d7)"><g clip-path="url(#18721e4e3a)"><path fill="#5dfdac" d="M 349.757812 173.835938 C 347.730469 172.117188 345.183594 171.316406 342.535156 171.574219 C 339.90625 171.828125 337.542969 173.121094 335.898438 175.207031 L 330.761719 181.722656 L 322.324219 151.398438 C 321.0625 146.863281 316.355469 144.21875 311.835938 145.476562 C 310.289062 145.90625 308.980469 146.765625 307.949219 147.847656 C 306.367188 143.878906 302.023438 141.613281 297.800781 142.785156 C 293.265625 144.046875 290.625 148.753906 291.878906 153.273438 L 292.46875 155.390625 C 291.054688 155.011719 289.53125 154.960938 288.019531 155.378906 C 283.484375 156.640625 280.839844 161.347656 282.097656 165.867188 L 282.523438 167.394531 C 281.097656 167.058594 279.574219 167.003906 278.0625 167.425781 C 273.542969 168.679688 270.878906 173.375 272.140625 177.910156 L 279.210938 203.332031 C 284.824219 223.5 303 236.140625 319.738281 231.484375 C 337.398438 226.570312 342.019531 211.699219 343.007812 207.253906 C 344.363281 201.199219 347.394531 191.675781 351.507812 184.828125 C 353.683594 181.164062 352.953125 176.542969 349.757812 173.835938 Z M 347.859375 182.644531 C 342.230469 192.039062 339.382812 204.011719 338.855469 206.324219 C 337.75 211.277344 333.566406 223.226562 318.582031 227.398438 C 304.109375 231.421875 288.273438 220.117188 283.285156 202.199219 L 276.214844 176.777344 C 275.578125 174.492188 276.910156 172.136719 279.195312 171.5 C 281.480469 170.863281 283.835938 172.195312 284.472656 174.480469 L 291.546875 199.902344 C 291.859375 201.027344 293.035156 201.691406 294.160156 201.378906 C 295.285156 201.066406 295.957031 199.90625 295.636719 198.761719 L 288.566406 173.339844 L 286.175781 164.75 C 285.539062 162.464844 286.871094 160.109375 289.15625 159.472656 C 291.441406 158.835938 293.796875 160.167969 294.433594 162.453125 L 303.328125 194.417969 C 303.640625 195.542969 304.820312 196.210938 305.945312 195.898438 C 307.066406 195.582031 307.738281 194.425781 307.421875 193.28125 L 298.527344 161.3125 L 295.972656 152.132812 C 295.335938 149.847656 296.667969 147.492188 298.953125 146.855469 C 301.238281 146.21875 303.597656 147.550781 304.230469 149.835938 L 305.933594 155.957031 L 314.292969 186.003906 C 314.609375 187.128906 315.785156 187.796875 316.910156 187.484375 C 318.035156 187.167969 318.699219 185.992188 318.386719 184.867188 L 310.027344 154.816406 C 309.390625 152.53125 310.722656 150.175781 313.007812 149.539062 C 315.292969 148.902344 317.652344 150.234375 318.285156 152.519531 L 327.460938 185.5 C 327.488281 185.59375 327.550781 185.675781 327.59375 185.761719 L 320.886719 194.28125 C 320.167969 195.195312 320.320312 196.523438 321.238281 197.261719 C 322.15625 197.980469 323.484375 197.828125 324.21875 196.910156 L 339.289062 177.820312 C 340.214844 176.648438 341.539062 175.921875 343.007812 175.773438 C 344.496094 175.617188 345.933594 176.070312 347.058594 177.050781 C 348.632812 178.417969 348.992188 180.78125 347.859375 182.644531 Z M 347.859375 182.644531 " fill-opacity="1" fill-rule="nonzero"/></g></g></g><g fill="#0a0a0a" fill-opacity="1"><g transform="translate(21.997967, 166.519885)"><g><path d="M 13.8125 -45.65625 L 15.25 -24.875 L 15.703125 -19.140625 L 19.296875 -19.625 C 19.910156 -19.707031 20.378906 -19.617188 20.703125 -19.359375 C 21.023438 -19.097656 21.195312 -18.804688 21.21875 -18.484375 C 21.25 -18.171875 21.140625 -17.875 20.890625 -17.59375 C 20.640625 -17.3125 20.34375 -17.160156 20 -17.140625 C 19.664062 -17.128906 19.28125 -17.109375 18.84375 -17.078125 C 18.40625 -17.046875 17.9375 -17.003906 17.4375 -16.953125 C 16.9375 -16.898438 16.476562 -16.859375 16.0625 -16.828125 C 16 -16.804688 15.953125 -16.789062 15.921875 -16.78125 L 16.078125 -14.09375 L 16.15625 -13.109375 C 16.300781 -11.171875 16.472656 -9.300781 16.671875 -7.5 C 16.878906 -5.695312 17.035156 -4.289062 17.140625 -3.28125 C 17.242188 -2.28125 17.148438 -1.609375 16.859375 -1.265625 C 16.578125 -0.929688 16.257812 -0.75 15.90625 -0.71875 C 15.550781 -0.6875 15.207031 -0.800781 14.875 -1.0625 C 14.550781 -1.320312 14.367188 -1.753906 14.328125 -2.359375 L 14.25 -3.234375 L 13.703125 -12.140625 C 13.585938 -13.585938 13.445312 -15.066406 13.28125 -16.578125 L 10.71875 -16.4375 L 1.28125 -15.375 C 0.0078125 -15.28125 -0.660156 -15.632812 -0.734375 -16.4375 C -0.753906 -16.738281 -0.625 -17.257812 -0.34375 -18 C -0.0625 -18.738281 0.476562 -20.035156 1.28125 -21.890625 C 2.082031 -23.742188 3.007812 -25.921875 4.0625 -28.421875 C 6.570312 -34.453125 8.804688 -40.316406 10.765625 -46.015625 C 11.097656 -46.878906 11.664062 -47.34375 12.46875 -47.40625 C 13.269531 -47.46875 13.71875 -46.882812 13.8125 -45.65625 Z M 11.515625 -41.5625 C 10.742188 -39.363281 9.675781 -36.503906 8.3125 -32.984375 C 6.65625 -28.660156 5.554688 -25.773438 5.015625 -24.328125 C 3.953125 -21.460938 3.21875 -19.359375 2.8125 -18.015625 C 3.832031 -18.054688 4.859375 -18.117188 5.890625 -18.203125 L 8.28125 -18.390625 C 8.582031 -18.410156 8.957031 -18.441406 9.40625 -18.484375 C 9.863281 -18.535156 10.335938 -18.582031 10.828125 -18.625 C 11.835938 -18.71875 12.597656 -18.796875 13.109375 -18.859375 C 12.535156 -27.617188 12.234375 -32.171875 12.203125 -32.515625 L 12.09375 -34 L 11.78125 -38.296875 Z M 11.515625 -41.5625 "/></g></g></g><g fill="#0a0a0a" fill-opacity="1"><g transform="translate(50.339398, 164.28931)"><g><path d="M 14.09375 -0.453125 C 8.832031 -0.0351562 5.257812 -4.585938 3.375 -14.109375 C 2.78125 -17.128906 2.335938 -20.460938 2.046875 -24.109375 C 1.753906 -27.765625 1.71875 -30.96875 1.9375 -33.71875 C 2.15625 -36.476562 2.632812 -38.820312 3.375 -40.75 C 4.894531 -44.757812 7.414062 -46.898438 10.9375 -47.171875 C 14.550781 -47.460938 17.332031 -45.816406 19.28125 -42.234375 C 21.113281 -38.816406 22.34375 -33.421875 22.96875 -26.046875 C 23.957031 -14.148438 22.578125 -6.320312 18.828125 -2.5625 C 17.535156 -1.300781 15.957031 -0.597656 14.09375 -0.453125 Z M 13.875 -3 C 19.320312 -3.425781 21.46875 -10.972656 20.3125 -25.640625 C 19.65625 -33.910156 18.316406 -39.421875 16.296875 -42.171875 C 14.941406 -44.003906 13.222656 -44.835938 11.140625 -44.671875 C 5.859375 -44.253906 3.738281 -37.40625 4.78125 -24.125 C 5.675781 -12.75 7.632812 -6.007812 10.65625 -3.90625 C 11.644531 -3.207031 12.71875 -2.90625 13.875 -3 Z M 13.875 -3 "/></g></g></g><g fill="#0a0a0a" fill-opacity="1"><g transform="translate(84.296781, 161.616738)"><g><path d="M 2.125 -12.03125 C 1.988281 -13.644531 2.503906 -14.5 3.671875 -14.59375 C 4.046875 -14.625 4.390625 -14.484375 4.703125 -14.171875 C 5.023438 -13.867188 5.175781 -13.460938 5.15625 -12.953125 C 5.144531 -12.453125 5.113281 -12.003906 5.0625 -11.609375 C 5.007812 -11.222656 5.007812 -10.640625 5.0625 -9.859375 C 5.125 -9.078125 5.332031 -8.195312 5.6875 -7.21875 C 6.050781 -6.25 6.539062 -5.429688 7.15625 -4.765625 C 8.46875 -3.378906 10.222656 -2.769531 12.421875 -2.9375 C 14.679688 -3.113281 16.332031 -4.082031 17.375 -5.84375 C 18.300781 -7.40625 18.675781 -9.347656 18.5 -11.671875 C 18.332031 -13.703125 17.535156 -15.421875 16.109375 -16.828125 C 14.535156 -18.335938 12.65625 -18.953125 10.46875 -18.671875 C 9.863281 -18.523438 9.398438 -18.582031 9.078125 -18.84375 C 8.753906 -19.113281 8.578125 -19.457031 8.546875 -19.875 C 8.515625 -20.300781 8.671875 -20.742188 9.015625 -21.203125 C 9.367188 -21.671875 9.945312 -22.015625 10.75 -22.234375 C 12.488281 -23.160156 13.859375 -24.734375 14.859375 -26.953125 C 15.859375 -29.179688 16.238281 -31.785156 16 -34.765625 C 15.769531 -37.753906 15.050781 -40.097656 13.84375 -41.796875 C 12.644531 -43.503906 11.070312 -44.28125 9.125 -44.125 C 7.175781 -43.96875 5.710938 -43.097656 4.734375 -41.515625 C 3.765625 -39.941406 3.394531 -37.707031 3.625 -34.8125 C 3.675781 -34.132812 3.628906 -33.628906 3.484375 -33.296875 C 3.335938 -32.960938 3.03125 -32.773438 2.5625 -32.734375 C 2.101562 -32.703125 1.695312 -32.828125 1.34375 -33.109375 C 0.988281 -33.390625 0.785156 -33.859375 0.734375 -34.515625 C 0.441406 -38.222656 1.125 -41.191406 2.78125 -43.421875 C 4.269531 -45.472656 6.269531 -46.597656 8.78125 -46.796875 C 14.570312 -47.253906 17.800781 -43.238281 18.46875 -34.75 C 18.832031 -30.1875 17.921875 -26.351562 15.734375 -23.25 C 15.109375 -22.382812 14.347656 -21.625 13.453125 -20.96875 C 15.054688 -20.8125 16.535156 -20.125 17.890625 -18.90625 C 19.816406 -17.1875 20.894531 -14.898438 21.125 -12.046875 C 21.375 -8.828125 20.644531 -6.113281 18.9375 -3.90625 C 17.269531 -1.75 15.039062 -0.554688 12.25 -0.328125 C 9.5625 -0.117188 7.269531 -0.976562 5.375 -2.90625 C 3.34375 -4.914062 2.265625 -7.703125 2.140625 -11.265625 C 2.140625 -11.535156 2.132812 -11.789062 2.125 -12.03125 Z M 2.125 -12.03125 "/></g></g></g></svg>