<svg xmlns="http://www.w3.org/2000/svg" xmlns:xlink="http://www.w3.org/1999/xlink" width="414" zoomAndPan="magnify" viewBox="0 0 310.5 323.999988" height="432" preserveAspectRatio="xMidYMid meet" version="1.0"><path fill="#dbdfe6" d="M 48.3125 318.140625 L 48.925781 296.085938 L 115.984375 297.953125 L 115.371094 320.007812 Z M 48.3125 318.140625 " fill-opacity="1" fill-rule="nonzero"/><path fill="#5dfdac" d="M 156.886719 187.417969 C 126.953125 175.695312 92.949219 180.578125 67.769531 200.605469 C 73.824219 205.433594 80.949219 210.941406 87.003906 215.765625 C 103.074219 203.578125 124.675781 201.164062 142.992188 209.601562 C 147.4375 202.070312 152.441406 194.949219 156.886719 187.417969 Z M 156.886719 187.417969 " fill-opacity="1" fill-rule="nonzero"/><path fill="#3be094" d="M 169.742188 41.707031 C 160 42.324219 100.472656 34.710938 33.308594 72.425781 C 28.242188 75.277344 18.910156 83.671875 10.65625 87.636719 C 11.363281 79.757812 13.132812 72.058594 16.296875 64.222656 C 32.859375 23.359375 77.308594 1.742188 121.109375 11.308594 C 140.132812 15.457031 158.09375 25.425781 169.742188 41.707031 Z M 169.742188 41.707031 " fill-opacity="1" fill-rule="nonzero"/><path fill="#dbdfe6" d="M 305.949219 68.757812 C 304.875 79.453125 285.976562 73.796875 269.003906 80.5 C 260.964844 83.6875 253.648438 90.308594 252.410156 98.863281 C 251.957031 101.933594 252.253906 105.289062 250.589844 107.921875 C 248.226562 111.679688 243.089844 112.273438 238.652344 112.464844 C 231.710938 112.789062 224.703125 113.097656 217.863281 111.820312 C 211.035156 110.554688 204.300781 107.546875 199.820312 102.230469 C 195.316406 96.894531 193.914062 90.753906 185.613281 87.984375 C 179.859375 86.125 173.019531 86.875 166.824219 87.792969 C 164.265625 86.183594 164.976562 81.613281 167.753906 80.886719 C 172.605469 81.078125 179.519531 81.375 184.480469 79.714844 C 189.734375 78.148438 194.746094 74.398438 196.363281 69.105469 C 197.523438 65.273438 196.828125 61.144531 197.355469 57.183594 C 197.875 53.207031 200.402344 48.871094 204.402344 48.679688 C 207.953125 48.511719 211.398438 51.722656 214.738281 50.496094 C 217.886719 49.335938 218.46875 44.859375 216.960938 41.851562 C 215.4375 38.84375 212.597656 36.78125 210.378906 34.261719 C 206.195312 29.527344 204.195312 22.636719 206.234375 16.660156 C 208.378906 10.390625 214.777344 6.042969 221.398438 5.601562 C 228.003906 5.164062 234.585938 8.300781 239.039062 13.230469 C 242.277344 16.804688 244.460938 21.21875 247.464844 24.984375 C 250.484375 28.765625 254.78125 32.042969 259.609375 31.902344 C 262.472656 31.8125 265.195312 30.519531 268.0625 30.40625 C 270.925781 30.289062 274.308594 32.121094 274.179688 34.984375 C 274.089844 36.804688 272.617188 38.25 272.101562 40.007812 C 271.066406 43.464844 274.269531 47.066406 277.832031 47.683594 C 285.164062 48.960938 290.875 41.742188 297.652344 39.96875 C 301.136719 39.0625 305.40625 39.824219 307.34375 42.871094 C 309.292969 45.953125 308.105469 50.214844 305.640625 52.898438 C 303.5625 55.167969 298.207031 55.996094 297.019531 58.332031 C 294.761719 62.742188 306.710938 61.167969 305.949219 68.757812 Z M 305.949219 68.757812 " fill-opacity="1" fill-rule="nonzero"/><path fill="#000000" d="M 76.410156 115.28125 C 75.546875 114.664062 74.835938 115.207031 70.039062 115.878906 L 65.496094 88.382812 C 65.117188 86.09375 62.460938 86.503906 61.953125 87.875 L 46.832031 119.894531 C 46.027344 121.445312 46.765625 122.941406 48.5625 122.644531 L 66.890625 119.617188 L 68.191406 127.480469 C 68.605469 130.007812 72.28125 129.421875 71.855469 126.875 L 70.558594 119.011719 L 75.640625 118.171875 C 77.589844 117.851562 77.261719 115.894531 76.410156 115.28125 Z M 50.707031 119.070312 L 62.632812 93.835938 L 66.375 116.484375 Z M 50.707031 119.070312 " fill-opacity="1" fill-rule="nonzero"/><path fill="#000000" d="M 91.703125 81.929688 C 80.542969 83.773438 79.023438 94.519531 80.863281 105.648438 C 82.703125 116.800781 87.640625 126.394531 98.746094 124.558594 C 109.851562 122.726562 111.425781 111.988281 109.585938 100.839844 C 107.75 89.722656 102.828125 80.089844 91.703125 81.929688 Z M 98.207031 121.308594 C 89.296875 122.78125 86.109375 113.886719 84.636719 104.960938 C 83.144531 95.933594 83.253906 86.667969 92.242188 85.179688 C 101.230469 83.695312 104.3125 92.441406 105.804688 101.464844 C 107.289062 110.464844 107.199219 119.824219 98.207031 121.308594 Z M 98.207031 121.308594 " fill-opacity="1" fill-rule="nonzero"/><path fill="#000000" d="M 147.363281 103.5625 C 146.5 102.945312 145.824219 103.480469 140.992188 104.160156 L 136.449219 76.664062 C 136.082031 74.4375 133.429688 74.726562 132.902344 76.15625 L 117.78125 108.175781 C 116.996094 109.6875 117.683594 111.226562 119.511719 110.925781 L 137.84375 107.898438 L 139.140625 115.761719 C 139.558594 118.300781 143.222656 117.6875 142.808594 115.15625 L 141.507812 107.292969 L 146.59375 106.453125 C 148.542969 106.128906 148.210938 104.171875 147.363281 103.5625 Z M 121.65625 107.351562 L 133.585938 82.117188 L 137.324219 104.761719 Z M 121.65625 107.351562 " fill-opacity="1" fill-rule="nonzero"/><path fill="#000000" d="M 187.5625 88.746094 C 186.929688 88.460938 186.273438 88.203125 185.613281 87.984375 C 190.386719 132.113281 165.894531 170.28125 142.707031 207.042969 C 124.503906 200.433594 103.683594 203.472656 86.691406 215.21875 C 66.859375 199.546875 44.625 180.1875 29.277344 155.347656 C 15.84375 133.578125 9.558594 109.5625 11.582031 87.726562 C 16.210938 37.265625 66.132812 0.265625 120.910156 12.222656 C 156.730469 20.046875 178.390625 45.386719 184.480469 79.714844 C 185.085938 79.53125 185.679688 79.328125 186.273438 79.082031 C 179.882812 43.570312 157.226562 18.234375 121.3125 10.390625 C 78.066406 0.945312 32.515625 21.703125 15.429688 63.867188 C 2.761719 95.148438 8.125 139.375 47.839844 182.625 C 62.660156 208.386719 96.382812 270.421875 97.796875 271.820312 C 96.511719 274.070312 97.570312 277.441406 97.929688 279.585938 C 98.4375 282.730469 103.082031 311.207031 103.621094 314.390625 C 104.429688 319.339844 106.871094 320.527344 109.226562 321.414062 C 114.96875 323.664062 121.246094 322.1875 127.121094 320.664062 C 131.601562 323.597656 137.457031 320.785156 141.859375 318.492188 C 144.960938 316.886719 171.832031 302.933594 171.964844 302.867188 C 171.96875 302.867188 171.96875 302.867188 171.96875 302.863281 C 174.574219 301.511719 177.265625 300.109375 176.28125 296 C 175.867188 294.210938 174.84375 292.730469 173.855469 291.292969 C 167.082031 281.453125 163.46875 276.222656 152.566406 260.394531 C 167.46875 203.195312 177.878906 148.964844 177.71875 147.847656 C 185.304688 128.980469 189.371094 109.660156 187.613281 89.25 C 187.601562 89.082031 187.589844 88.914062 187.5625 88.746094 Z M 140.125 234.226562 C 129.835938 238.023438 119.0625 240.472656 108.140625 241.46875 L 100.894531 219.636719 C 114.332031 220.390625 127.238281 217.226562 139.574219 211.078125 C 139.515625 218.535156 139.839844 226.625 140.125 234.226562 Z M 140.8125 255.34375 C 90.574219 275.644531 135.652344 257.429688 116.066406 265.34375 L 108.746094 243.292969 C 119.476562 242.273438 130.066406 239.886719 140.199219 236.203125 C 140.90625 255.714844 140.183594 254.746094 140.8125 255.34375 Z M 53.199219 188.238281 C 63.910156 199.125 75.339844 208.664062 86.054688 217.121094 C 86.660156 217.589844 93.613281 219.039062 98.871094 219.488281 L 106.210938 241.613281 C 91.753906 242.707031 83.664062 241.058594 82.652344 241.210938 C 72.152344 222.257812 63.164062 205.769531 53.199219 188.238281 Z M 83.734375 243.160156 C 91.84375 244.019531 99.179688 244.058594 106.824219 243.449219 L 114.324219 266.046875 C 113.734375 266.285156 113.144531 266.523438 112.554688 266.761719 C 107.289062 267.550781 100.445312 269.664062 99.113281 270.476562 C 93.96875 261.527344 88.824219 252.335938 83.734375 243.160156 Z M 172.3125 292.359375 C 173.199219 293.648438 174.121094 294.984375 174.457031 296.429688 C 175.074219 299.003906 173.800781 299.796875 171.105469 301.199219 C 170.972656 301.269531 142.414062 316.09375 140.996094 316.828125 C 138.011719 318.382812 134.308594 320.308594 130.585938 320.003906 C 127.238281 319.746094 124.269531 315.449219 123.542969 312.074219 C 120.472656 297.375 117.074219 283.273438 113.902344 268.242188 C 145.4375 255.496094 142.253906 256.816406 143.464844 256.183594 C 144.230469 255.785156 146.035156 254.871094 146.492188 254.890625 C 146.882812 255.035156 147.648438 256.363281 147.976562 256.929688 C 148.675781 258.144531 146.824219 255.332031 172.3125 292.359375 Z M 149.601562 255.992188 C 147.417969 252.203125 146.703125 252.375 142.394531 254.628906 C 142.488281 248.535156 142.289062 241.992188 142.050781 235.527344 C 147.820312 233.324219 153.425781 230.691406 158.820312 227.652344 C 156.359375 237.902344 153.796875 248.175781 151.15625 258.347656 C 149.886719 256.5 150.066406 256.792969 149.601562 255.992188 Z M 159.417969 225.164062 C 153.828125 228.414062 147.992188 231.214844 141.976562 233.542969 C 141.6875 225.816406 141.359375 217.558594 141.453125 210.121094 C 142.925781 209.347656 143.6875 208.980469 143.894531 208.667969 C 154.878906 191.238281 166.140625 173.761719 174.433594 155.535156 C 170.28125 177.347656 165.144531 201.140625 159.417969 225.164062 Z M 159.417969 225.164062 " fill-opacity="1" fill-rule="nonzero"/><path fill="#000000" d="M 164.789062 92.402344 C 166.035156 95.0625 168.976562 97.027344 172.199219 96.933594 C 172.71875 96.914062 173.121094 96.480469 173.105469 95.960938 C 173.085938 95.441406 172.65625 95.046875 172.132812 95.058594 C 169.792969 95.140625 167.476562 93.722656 166.488281 91.605469 C 165.496094 89.492188 165.894531 86.800781 167.453125 85.0625 C 167.777344 84.695312 167.769531 84.144531 167.433594 83.789062 C 162.949219 79.0625 164.191406 71.289062 169.945312 68.203125 C 170.402344 67.960938 170.574219 67.390625 170.328125 66.933594 C 170.082031 66.476562 169.511719 66.304688 169.058594 66.550781 C 162.636719 69.996094 160.726562 78.589844 165.53125 84.464844 C 163.925781 86.730469 163.605469 89.878906 164.789062 92.402344 Z M 164.789062 92.402344 " fill-opacity="1" fill-rule="nonzero"/><path fill="#000000" d="M 181.066406 242.207031 C 180.546875 242.238281 180.152344 242.683594 180.183594 243.199219 L 181.050781 258.039062 C 181.078125 258.539062 181.492188 258.921875 181.988281 258.921875 C 182.003906 258.921875 182.023438 258.921875 182.042969 258.921875 C 182.558594 258.890625 182.953125 258.449219 182.921875 257.933594 L 182.054688 243.089844 C 182.027344 242.574219 181.59375 242.179688 181.066406 242.207031 Z M 181.066406 242.207031 " fill-opacity="1" fill-rule="nonzero"/><path fill="#000000" d="M 198.742188 259.34375 C 199 259.34375 199.253906 259.238281 199.4375 259.03125 L 213.507812 243.410156 C 213.855469 243.027344 213.824219 242.433594 213.4375 242.085938 C 213.054688 241.742188 212.460938 241.769531 212.113281 242.15625 L 198.046875 257.777344 C 197.699219 258.160156 197.730469 258.753906 198.113281 259.101562 C 198.292969 259.261719 198.519531 259.34375 198.742188 259.34375 Z M 198.742188 259.34375 " fill-opacity="1" fill-rule="nonzero"/><path fill="#000000" d="M 217.125 271.804688 L 199.042969 271.722656 C 199.042969 271.722656 199.039062 271.722656 199.039062 271.722656 C 198.523438 271.722656 198.105469 272.136719 198.101562 272.65625 C 198.097656 273.171875 198.515625 273.59375 199.035156 273.597656 L 217.117188 273.679688 C 217.121094 273.679688 217.121094 273.679688 217.121094 273.679688 C 217.636719 273.679688 218.058594 273.261719 218.058594 272.746094 C 218.0625 272.226562 217.644531 271.804688 217.125 271.804688 Z M 217.125 271.804688 " fill-opacity="1" fill-rule="nonzero"/><path fill="#000000" d="M 71.398438 280.128906 C 53.382812 281.5 34.738281 269.921875 28.039062 253.136719 C 26.023438 248.085938 25.308594 243.152344 25.921875 238.832031 C 29.597656 241.640625 33.777344 244.148438 38.359375 244.640625 C 42.886719 245.121094 47.25 243.347656 49.472656 240.113281 C 53.609375 234.089844 48.714844 225.023438 41.667969 223.746094 C 34.265625 222.390625 26.980469 228.175781 24.742188 235.453125 C 5.882812 219.109375 2.097656 191.894531 14.878906 171.226562 L 16.332031 178.3125 C 16.4375 178.828125 16.945312 179.148438 17.441406 179.042969 C 17.945312 178.9375 18.273438 178.441406 18.171875 177.9375 L 16.417969 169.382812 C 16.316406 168.878906 15.820312 168.539062 15.289062 168.65625 L 9.664062 169.9375 C 9.15625 170.054688 8.839844 170.558594 8.957031 171.0625 C 9.074219 171.566406 9.570312 171.878906 10.082031 171.769531 L 12.726562 171.164062 C -0.0625 192.875 4.425781 220.945312 24.234375 237.480469 C 23.027344 243.539062 24.59375 249.558594 26.296875 253.832031 C 33.375 271.558594 52.34375 283.480469 71.542969 281.996094 C 72.0625 281.957031 72.445312 281.507812 72.40625 280.992188 C 72.367188 280.472656 71.902344 280.058594 71.398438 280.128906 Z M 41.332031 225.589844 C 47.09375 226.636719 51.253906 234.207031 47.925781 239.046875 C 46.089844 241.722656 42.417969 243.1875 38.558594 242.773438 C 34.109375 242.300781 29.882812 239.597656 26.328125 236.769531 C 28.28125 229.082031 35.324219 224.507812 41.332031 225.589844 Z M 41.332031 225.589844 " fill-opacity="1" fill-rule="nonzero"/><path fill="#000000" d="M 278.832031 184.269531 C 281.730469 173.21875 279.921875 160.796875 273.988281 151.03125 C 270.53125 145.347656 266.148438 141.410156 261.316406 139.652344 C 261.238281 139.625 261.160156 139.597656 261.082031 139.570312 C 259.609375 136.511719 257.578125 133.996094 256.019531 132.335938 C 246.355469 122.015625 231.152344 117.144531 217.289062 119.910156 C 216.78125 120.011719 216.453125 120.507812 216.554688 121.015625 C 216.65625 121.523438 217.148438 121.851562 217.65625 121.75 C 230.898438 119.105469 245.421875 123.761719 254.652344 133.617188 C 256.257812 135.332031 257.582031 137.117188 258.605469 138.921875 C 253.355469 137.976562 248.019531 139.636719 244.960938 143.375 C 242.960938 145.816406 242.15625 149.394531 242.859375 152.707031 C 243.480469 155.632812 245.207031 158.003906 247.59375 159.203125 C 250.140625 160.484375 253.125 160.398438 255.996094 158.960938 C 259.476562 157.214844 262.144531 153.730469 262.789062 150.082031 C 263.296875 147.210938 262.917969 144.476562 262.078125 142 C 266.921875 144.277344 270.324219 148.617188 272.386719 152.007812 C 278.058594 161.34375 279.789062 173.226562 277.019531 183.792969 C 274.296875 194.167969 267.167969 203.507812 257.894531 208.90625 L 257.722656 203.089844 C 257.710938 202.570312 257.226562 202.15625 256.757812 202.179688 C 256.242188 202.195312 255.832031 202.628906 255.847656 203.144531 L 256.058594 210.363281 C 256.074219 210.839844 256.445312 211.230469 256.921875 211.269531 L 266.898438 212.0625 C 266.921875 212.0625 266.949219 212.0625 266.972656 212.0625 C 267.457031 212.0625 267.867188 211.691406 267.90625 211.199219 C 267.949219 210.683594 267.5625 210.230469 267.046875 210.191406 L 260.28125 209.65625 C 269.269531 203.90625 276.132812 194.574219 278.832031 184.269531 Z M 260.941406 149.753906 C 260.394531 152.839844 258.125 155.796875 255.152344 157.285156 C 252.828125 158.449219 250.441406 158.535156 248.433594 157.527344 C 246.53125 156.570312 245.203125 154.71875 244.691406 152.316406 C 244.105469 149.546875 244.765625 146.574219 246.410156 144.5625 C 248.523438 141.984375 252.054688 140.554688 255.761719 140.554688 C 257.070312 140.554688 258.398438 140.734375 259.695312 141.101562 C 260.972656 144.074219 261.421875 147.039062 260.941406 149.753906 Z M 260.941406 149.753906 " fill-opacity="1" fill-rule="nonzero"/><path fill="#dbdfe6" d="M 48.3125 318.140625 L 48.925781 296.085938 L 115.984375 297.953125 L 115.371094 320.007812 Z M 48.3125 318.140625 " fill-opacity="1" fill-rule="nonzero"/><path fill="#5dfdac" d="M 156.886719 187.417969 C 126.953125 175.695312 92.949219 180.578125 67.769531 200.605469 C 73.824219 205.433594 80.949219 210.941406 87.003906 215.765625 C 103.074219 203.578125 124.675781 201.164062 142.992188 209.601562 C 147.4375 202.070312 152.441406 194.949219 156.886719 187.417969 Z M 156.886719 187.417969 " fill-opacity="1" fill-rule="nonzero"/><path fill="#3be094" d="M 169.742188 41.707031 C 160 42.324219 100.472656 34.710938 33.308594 72.425781 C 28.242188 75.277344 18.910156 83.671875 10.65625 87.636719 C 11.363281 79.757812 13.132812 72.058594 16.296875 64.222656 C 32.859375 23.359375 77.308594 1.742188 121.109375 11.308594 C 140.132812 15.457031 158.09375 25.425781 169.742188 41.707031 Z M 169.742188 41.707031 " fill-opacity="1" fill-rule="nonzero"/><path fill="#dbdfe6" d="M 305.949219 68.757812 C 304.875 79.453125 285.976562 73.796875 269.003906 80.5 C 260.964844 83.6875 253.648438 90.308594 252.410156 98.863281 C 251.957031 101.933594 252.253906 105.289062 250.589844 107.921875 C 248.226562 111.679688 243.089844 112.273438 238.652344 112.464844 C 231.710938 112.789062 224.703125 113.097656 217.863281 111.820312 C 211.035156 110.554688 204.300781 107.546875 199.820312 102.230469 C 195.316406 96.894531 193.914062 90.753906 185.613281 87.984375 C 179.859375 86.125 173.019531 86.875 166.824219 87.792969 C 164.265625 86.183594 164.976562 81.613281 167.753906 80.886719 C 172.605469 81.078125 179.519531 81.375 184.480469 79.714844 C 189.734375 78.148438 194.746094 74.398438 196.363281 69.105469 C 197.523438 65.273438 196.828125 61.144531 197.355469 57.183594 C 197.875 53.207031 200.402344 48.871094 204.402344 48.679688 C 207.953125 48.511719 211.398438 51.722656 214.738281 50.496094 C 217.886719 49.335938 218.46875 44.859375 216.960938 41.851562 C 215.4375 38.84375 212.597656 36.78125 210.378906 34.261719 C 206.195312 29.527344 204.195312 22.636719 206.234375 16.660156 C 208.378906 10.390625 214.777344 6.042969 221.398438 5.601562 C 228.003906 5.164062 234.585938 8.300781 239.039062 13.230469 C 242.277344 16.804688 244.460938 21.21875 247.464844 24.984375 C 250.484375 28.765625 254.78125 32.042969 259.609375 31.902344 C 262.472656 31.8125 265.195312 30.519531 268.0625 30.40625 C 270.925781 30.289062 274.308594 32.121094 274.179688 34.984375 C 274.089844 36.804688 272.617188 38.25 272.101562 40.007812 C 271.066406 43.464844 274.269531 47.066406 277.832031 47.683594 C 285.164062 48.960938 290.875 41.742188 297.652344 39.96875 C 301.136719 39.0625 305.40625 39.824219 307.34375 42.871094 C 309.292969 45.953125 308.105469 50.214844 305.640625 52.898438 C 303.5625 55.167969 298.207031 55.996094 297.019531 58.332031 C 294.761719 62.742188 306.710938 61.167969 305.949219 68.757812 Z M 305.949219 68.757812 " fill-opacity="1" fill-rule="nonzero"/><path fill="#000000" d="M 76.410156 115.28125 C 75.546875 114.664062 74.835938 115.207031 70.039062 115.878906 L 65.496094 88.382812 C 65.117188 86.09375 62.460938 86.503906 61.953125 87.875 L 46.832031 119.894531 C 46.027344 121.445312 46.765625 122.941406 48.5625 122.644531 L 66.890625 119.617188 L 68.191406 127.480469 C 68.605469 130.007812 72.28125 129.421875 71.855469 126.875 L 70.558594 119.011719 L 75.640625 118.171875 C 77.589844 117.851562 77.261719 115.894531 76.410156 115.28125 Z M 50.707031 119.070312 L 62.632812 93.835938 L 66.375 116.484375 Z M 50.707031 119.070312 " fill-opacity="1" fill-rule="nonzero"/><path fill="#000000" d="M 91.703125 81.929688 C 80.542969 83.773438 79.023438 94.519531 80.863281 105.648438 C 82.703125 116.800781 87.640625 126.394531 98.746094 124.558594 C 109.851562 122.726562 111.425781 111.988281 109.585938 100.839844 C 107.75 89.722656 102.828125 80.089844 91.703125 81.929688 Z M 98.207031 121.308594 C 89.296875 122.78125 86.109375 113.886719 84.636719 104.960938 C 83.144531 95.933594 83.253906 86.667969 92.242188 85.179688 C 101.230469 83.695312 104.3125 92.441406 105.804688 101.464844 C 107.289062 110.464844 107.199219 119.824219 98.207031 121.308594 Z M 98.207031 121.308594 " fill-opacity="1" fill-rule="nonzero"/><path fill="#000000" d="M 147.363281 103.5625 C 146.5 102.945312 145.824219 103.480469 140.992188 104.160156 L 136.449219 76.664062 C 136.082031 74.4375 133.429688 74.726562 132.902344 76.15625 L 117.78125 108.175781 C 116.996094 109.6875 117.683594 111.226562 119.511719 110.925781 L 137.84375 107.898438 L 139.140625 115.761719 C 139.558594 118.300781 143.222656 117.6875 142.808594 115.15625 L 141.507812 107.292969 L 146.59375 106.453125 C 148.542969 106.128906 148.210938 104.171875 147.363281 103.5625 Z M 121.65625 107.351562 L 133.585938 82.117188 L 137.324219 104.761719 Z M 121.65625 107.351562 " fill-opacity="1" fill-rule="nonzero"/><path fill="#000000" d="M 187.5625 88.746094 C 186.929688 88.460938 186.273438 88.203125 185.613281 87.984375 C 190.386719 132.113281 165.894531 170.28125 142.707031 207.042969 C 124.503906 200.433594 103.683594 203.472656 86.691406 215.21875 C 66.859375 199.546875 44.625 180.1875 29.277344 155.347656 C 15.84375 133.578125 9.558594 109.5625 11.582031 87.726562 C 16.210938 37.265625 66.132812 0.265625 120.910156 12.222656 C 156.730469 20.046875 178.390625 45.386719 184.480469 79.714844 C 185.085938 79.53125 185.679688 79.328125 186.273438 79.082031 C 179.882812 43.570312 157.226562 18.234375 121.3125 10.390625 C 78.066406 0.945312 32.515625 21.703125 15.429688 63.867188 C 2.761719 95.148438 8.125 139.375 47.839844 182.625 C 62.660156 208.386719 96.382812 270.421875 97.796875 271.820312 C 96.511719 274.070312 97.570312 277.441406 97.929688 279.585938 C 98.4375 282.730469 103.082031 311.207031 103.621094 314.390625 C 104.429688 319.339844 106.871094 320.527344 109.226562 321.414062 C 114.96875 323.664062 121.246094 322.1875 127.121094 320.664062 C 131.601562 323.597656 137.457031 320.785156 141.859375 318.492188 C 144.960938 316.886719 171.832031 302.933594 171.964844 302.867188 C 171.96875 302.867188 171.96875 302.867188 171.96875 302.863281 C 174.574219 301.511719 177.265625 300.109375 176.28125 296 C 175.867188 294.210938 174.84375 292.730469 173.855469 291.292969 C 167.082031 281.453125 163.46875 276.222656 152.566406 260.394531 C 167.46875 203.195312 177.878906 148.964844 177.71875 147.847656 C 185.304688 128.980469 189.371094 109.660156 187.613281 89.25 C 187.601562 89.082031 187.589844 88.914062 187.5625 88.746094 Z M 140.125 234.226562 C 129.835938 238.023438 119.0625 240.472656 108.140625 241.46875 L 100.894531 219.636719 C 114.332031 220.390625 127.238281 217.226562 139.574219 211.078125 C 139.515625 218.535156 139.839844 226.625 140.125 234.226562 Z M 140.8125 255.34375 C 90.574219 275.644531 135.652344 257.429688 116.066406 265.34375 L 108.746094 243.292969 C 119.476562 242.273438 130.066406 239.886719 140.199219 236.203125 C 140.90625 255.714844 140.183594 254.746094 140.8125 255.34375 Z M 53.199219 188.238281 C 63.910156 199.125 75.339844 208.664062 86.054688 217.121094 C 86.660156 217.589844 93.613281 219.039062 98.871094 219.488281 L 106.210938 241.613281 C 91.753906 242.707031 83.664062 241.058594 82.652344 241.210938 C 72.152344 222.257812 63.164062 205.769531 53.199219 188.238281 Z M 83.734375 243.160156 C 91.84375 244.019531 99.179688 244.058594 106.824219 243.449219 L 114.324219 266.046875 C 113.734375 266.285156 113.144531 266.523438 112.554688 266.761719 C 107.289062 267.550781 100.445312 269.664062 99.113281 270.476562 C 93.96875 261.527344 88.824219 252.335938 83.734375 243.160156 Z M 172.3125 292.359375 C 173.199219 293.648438 174.121094 294.984375 174.457031 296.429688 C 175.074219 299.003906 173.800781 299.796875 171.105469 301.199219 C 170.972656 301.269531 142.414062 316.09375 140.996094 316.828125 C 138.011719 318.382812 134.308594 320.308594 130.585938 320.003906 C 127.238281 319.746094 124.269531 315.449219 123.542969 312.074219 C 120.472656 297.375 117.074219 283.273438 113.902344 268.242188 C 145.4375 255.496094 142.253906 256.816406 143.464844 256.183594 C 144.230469 255.785156 146.035156 254.871094 146.492188 254.890625 C 146.882812 255.035156 147.648438 256.363281 147.976562 256.929688 C 148.675781 258.144531 146.824219 255.332031 172.3125 292.359375 Z M 149.601562 255.992188 C 147.417969 252.203125 146.703125 252.375 142.394531 254.628906 C 142.488281 248.535156 142.289062 241.992188 142.050781 235.527344 C 147.820312 233.324219 153.425781 230.691406 158.820312 227.652344 C 156.359375 237.902344 153.796875 248.175781 151.15625 258.347656 C 149.886719 256.5 150.066406 256.792969 149.601562 255.992188 Z M 159.417969 225.164062 C 153.828125 228.414062 147.992188 231.214844 141.976562 233.542969 C 141.6875 225.816406 141.359375 217.558594 141.453125 210.121094 C 142.925781 209.347656 143.6875 208.980469 143.894531 208.667969 C 154.878906 191.238281 166.140625 173.761719 174.433594 155.535156 C 170.28125 177.347656 165.144531 201.140625 159.417969 225.164062 Z M 159.417969 225.164062 " fill-opacity="1" fill-rule="nonzero"/><path fill="#000000" d="M 164.789062 92.402344 C 166.035156 95.0625 168.976562 97.027344 172.199219 96.933594 C 172.71875 96.914062 173.121094 96.480469 173.105469 95.960938 C 173.085938 95.441406 172.65625 95.046875 172.132812 95.058594 C 169.792969 95.140625 167.476562 93.722656 166.488281 91.605469 C 165.496094 89.492188 165.894531 86.800781 167.453125 85.0625 C 167.777344 84.695312 167.769531 84.144531 167.433594 83.789062 C 162.949219 79.0625 164.191406 71.289062 169.945312 68.203125 C 170.402344 67.960938 170.574219 67.390625 170.328125 66.933594 C 170.082031 66.476562 169.511719 66.304688 169.058594 66.550781 C 162.636719 69.996094 160.726562 78.589844 165.53125 84.464844 C 163.925781 86.730469 163.605469 89.878906 164.789062 92.402344 Z M 164.789062 92.402344 " fill-opacity="1" fill-rule="nonzero"/><path fill="#000000" d="M 181.066406 242.207031 C 180.546875 242.238281 180.152344 242.683594 180.183594 243.199219 L 181.050781 258.039062 C 181.078125 258.539062 181.492188 258.921875 181.988281 258.921875 C 182.003906 258.921875 182.023438 258.921875 182.042969 258.921875 C 182.558594 258.890625 182.953125 258.449219 182.921875 257.933594 L 182.054688 243.089844 C 182.027344 242.574219 181.59375 242.179688 181.066406 242.207031 Z M 181.066406 242.207031 " fill-opacity="1" fill-rule="nonzero"/><path fill="#000000" d="M 198.742188 259.34375 C 199 259.34375 199.253906 259.238281 199.4375 259.03125 L 213.507812 243.410156 C 213.855469 243.027344 213.824219 242.433594 213.4375 242.085938 C 213.054688 241.742188 212.460938 241.769531 212.113281 242.15625 L 198.046875 257.777344 C 197.699219 258.160156 197.730469 258.753906 198.113281 259.101562 C 198.292969 259.261719 198.519531 259.34375 198.742188 259.34375 Z M 198.742188 259.34375 " fill-opacity="1" fill-rule="nonzero"/><path fill="#000000" d="M 217.125 271.804688 L 199.042969 271.722656 C 199.042969 271.722656 199.039062 271.722656 199.039062 271.722656 C 198.523438 271.722656 198.105469 272.136719 198.101562 272.65625 C 198.097656 273.171875 198.515625 273.59375 199.035156 273.597656 L 217.117188 273.679688 C 217.121094 273.679688 217.121094 273.679688 217.121094 273.679688 C 217.636719 273.679688 218.058594 273.261719 218.058594 272.746094 C 218.0625 272.226562 217.644531 271.804688 217.125 271.804688 Z M 217.125 271.804688 " fill-opacity="1" fill-rule="nonzero"/><path fill="#000000" d="M 71.398438 280.128906 C 53.382812 281.5 34.738281 269.921875 28.039062 253.136719 C 26.023438 248.085938 25.308594 243.152344 25.921875 238.832031 C 29.597656 241.640625 33.777344 244.148438 38.359375 244.640625 C 42.886719 245.121094 47.25 243.347656 49.472656 240.113281 C 53.609375 234.089844 48.714844 225.023438 41.667969 223.746094 C 34.265625 222.390625 26.980469 228.175781 24.742188 235.453125 C 5.882812 219.109375 2.097656 191.894531 14.878906 171.226562 L 16.332031 178.3125 C 16.4375 178.828125 16.945312 179.148438 17.441406 179.042969 C 17.945312 178.9375 18.273438 178.441406 18.171875 177.9375 L 16.417969 169.382812 C 16.316406 168.878906 15.820312 168.539062 15.289062 168.65625 L 9.664062 169.9375 C 9.15625 170.054688 8.839844 170.558594 8.957031 171.0625 C 9.074219 171.566406 9.570312 171.878906 10.082031 171.769531 L 12.726562 171.164062 C -0.0625 192.875 4.425781 220.945312 24.234375 237.480469 C 23.027344 243.539062 24.59375 249.558594 26.296875 253.832031 C 33.375 271.558594 52.34375 283.480469 71.542969 281.996094 C 72.0625 281.957031 72.445312 281.507812 72.40625 280.992188 C 72.367188 280.472656 71.902344 280.058594 71.398438 280.128906 Z M 41.332031 225.589844 C 47.09375 226.636719 51.253906 234.207031 47.925781 239.046875 C 46.089844 241.722656 42.417969 243.1875 38.558594 242.773438 C 34.109375 242.300781 29.882812 239.597656 26.328125 236.769531 C 28.28125 229.082031 35.324219 224.507812 41.332031 225.589844 Z M 41.332031 225.589844 " fill-opacity="1" fill-rule="nonzero"/><path fill="#000000" d="M 278.832031 184.269531 C 281.730469 173.21875 279.921875 160.796875 273.988281 151.03125 C 270.53125 145.347656 266.148438 141.410156 261.316406 139.652344 C 261.238281 139.625 261.160156 139.597656 261.082031 139.570312 C 259.609375 136.511719 257.578125 133.996094 256.019531 132.335938 C 246.355469 122.015625 231.152344 117.144531 217.289062 119.910156 C 216.78125 120.011719 216.453125 120.507812 216.554688 121.015625 C 216.65625 121.523438 217.148438 121.851562 217.65625 121.75 C 230.898438 119.105469 245.421875 123.761719 254.652344 133.617188 C 256.257812 135.332031 257.582031 137.117188 258.605469 138.921875 C 253.355469 137.976562 248.019531 139.636719 244.960938 143.375 C 242.960938 145.816406 242.15625 149.394531 242.859375 152.707031 C 243.480469 155.632812 245.207031 158.003906 247.59375 159.203125 C 250.140625 160.484375 253.125 160.398438 255.996094 158.960938 C 259.476562 157.214844 262.144531 153.730469 262.789062 150.082031 C 263.296875 147.210938 262.917969 144.476562 262.078125 142 C 266.921875 144.277344 270.324219 148.617188 272.386719 152.007812 C 278.058594 161.34375 279.789062 173.226562 277.019531 183.792969 C 274.296875 194.167969 267.167969 203.507812 257.894531 208.90625 L 257.722656 203.089844 C 257.710938 202.570312 257.226562 202.15625 256.757812 202.179688 C 256.242188 202.195312 255.832031 202.628906 255.847656 203.144531 L 256.058594 210.363281 C 256.074219 210.839844 256.445312 211.230469 256.921875 211.269531 L 266.898438 212.0625 C 266.921875 212.0625 266.949219 212.0625 266.972656 212.0625 C 267.457031 212.0625 267.867188 211.691406 267.90625 211.199219 C 267.949219 210.683594 267.5625 210.230469 267.046875 210.191406 L 260.28125 209.65625 C 269.269531 203.90625 276.132812 194.574219 278.832031 184.269531 Z M 260.941406 149.753906 C 260.394531 152.839844 258.125 155.796875 255.152344 157.285156 C 252.828125 158.449219 250.441406 158.535156 248.433594 157.527344 C 246.53125 156.570312 245.203125 154.71875 244.691406 152.316406 C 244.105469 149.546875 244.765625 146.574219 246.410156 144.5625 C 248.523438 141.984375 252.054688 140.554688 255.761719 140.554688 C 257.070312 140.554688 258.398438 140.734375 259.695312 141.101562 C 260.972656 144.074219 261.421875 147.039062 260.941406 149.753906 Z M 260.941406 149.753906 " fill-opacity="1" fill-rule="nonzero"/></svg>